<svg version="1.1" xmlns="http://www.w3.org/2000/svg" x="0px" y="0px"
	 viewBox="0 0 129 41">
<g id="Giant">
  <path fill="#FFFFFF" d="M53.7,29.9v-10c0-2.8,0.8-4.9,2.3-6.2c1.5-1.3,3.5-2,6-2c2.5,0,4.6,0.6,6.2,1.9c1.6,1.2,2.4,2.9,2.4,5
		c0,0.9-0.2,1.5-0.6,1.8c-0.4,0.3-1,0.5-1.8,0.5c-1.5,0-2.3-0.5-2.3-1.5c-0.1-1.1-0.4-1.9-0.9-2.6s-1.5-1-2.8-1
		c-2.5,0-3.8,1.4-3.8,4.1v10c0,2.8,1.2,4.1,3.7,4.1c1.2,0,2.1-0.3,2.8-1c0.7-0.7,1-1.7,1-3.1v-2.1H63c-0.5,0-0.8-0.2-1.1-0.5
		c-0.3-0.4-0.4-0.8-0.4-1.3c0-0.5,0.1-0.9,0.4-1.3c0.3-0.4,0.6-0.6,1-0.6h6.1c0.5,0,0.8,0.2,1.1,0.5c0.3,0.3,0.4,0.7,0.4,1.1v4.3
		c0,2.9-0.8,4.9-2.3,6.3c-1.5,1.3-3.6,2-6.2,2c-2.6,0-4.6-0.7-6.1-2C54.4,34.8,53.7,32.7,53.7,29.9z"/>
  <path fill="#FFFFFF" d="M73.7,14.9c0-0.6,0.3-1,0.8-1.5c0.5-0.4,1.1-0.6,1.9-0.6c0.7,0,1.2,0.2,1.7,0.6c0.5,0.4,0.7,0.9,0.7,1.5
		c0,0.5-0.2,1-0.7,1.4c-0.5,0.4-1,0.6-1.7,0.6c-0.7,0-1.4-0.2-1.9-0.6C73.9,16,73.7,15.5,73.7,14.9z M74.1,36.4V22.3
		c0-0.4,0.2-0.8,0.6-1c0.4-0.3,0.9-0.4,1.6-0.4c0.6,0,1.2,0.1,1.6,0.4c0.4,0.3,0.6,0.6,0.6,1v14.2c0,0.4-0.2,0.7-0.7,1
		s-1,0.5-1.6,0.5c-0.6,0-1.1-0.1-1.6-0.5C74.3,37.2,74.1,36.8,74.1,36.4z"/>
  <path fill="#FFFFFF" d="M81.1,33.3c0-1.9,0.7-3.2,2.2-4c1.4-0.8,3.5-1.2,6.2-1.2H91v-0.5c0-0.9-0.3-1.7-0.8-2.4
		c-0.5-0.7-1.3-1-2.4-1c-1.1,0-2,0.2-2.8,0.6c-0.8,0.4-1.2,0.6-1.3,0.6c-0.5,0-0.9-0.2-1.2-0.7s-0.4-1-0.4-1.6
		c0-0.7,0.6-1.3,1.9-1.8c1.2-0.5,2.5-0.8,3.9-0.8c2.6,0,4.6,0.7,5.8,2c1.3,1.3,1.9,3,1.9,5v8.8c0,0.4-0.2,0.8-0.6,1
		c-0.4,0.3-1,0.4-1.6,0.4c-0.6,0-1.1-0.2-1.5-0.5c-0.4-0.3-0.6-0.7-0.6-1.1v-1.1c-1.7,2-3.5,3-5.5,3c-1.4,0-2.5-0.4-3.4-1.3
		C81.6,36.1,81.1,34.9,81.1,33.3z M85.8,32.7c0,0.6,0.2,1.1,0.5,1.4c0.3,0.3,0.8,0.5,1.4,0.5c0.8,0,1.5-0.3,2.2-1
		c0.7-0.7,1.1-1.4,1.1-2.3v-0.7h-0.5c-1.5,0-2.6,0.1-3.4,0.4C86.2,31.3,85.8,31.9,85.8,32.7z"/>
  <path fill="#FFFFFF" d="M99.1,36.4V22.3c0-0.4,0.2-0.8,0.6-1c0.4-0.3,1-0.4,1.7-0.4c0.6,0,1.1,0.1,1.5,0.4c0.4,0.3,0.6,0.6,0.6,1.1
		v1.1c0.4-0.8,1-1.4,1.9-2c0.9-0.5,1.8-0.8,3-0.8c1.7,0,3.1,0.7,4.3,2.2c1.2,1.4,1.9,3.2,1.9,5.1v8.5c0,0.5-0.2,0.8-0.7,1.1
		c-0.5,0.3-1,0.4-1.6,0.4c-0.6,0-1.1-0.1-1.6-0.4c-0.5-0.3-0.7-0.6-0.7-1.1v-8.5c0-0.8-0.3-1.6-0.9-2.2s-1.4-1-2.2-1
		c-0.8,0-1.5,0.3-2.1,0.9s-0.9,1.4-0.9,2.3v8.5c0,0.4-0.2,0.7-0.7,1c-0.5,0.3-1,0.5-1.6,0.5c-0.6,0-1.2-0.1-1.6-0.5
		C99.3,37.2,99.1,36.8,99.1,36.4z"/>
  <path fill="#FFFFFF" d="M117.9,32.2V14.9c0-0.4,0.2-0.7,0.7-1c0.5-0.3,1-0.4,1.6-0.4c0.6,0,1.2,0.1,1.6,0.4s0.7,0.6,0.7,1v6h4.2
		c0.4,0,0.6,0.2,0.9,0.5s0.3,0.8,0.3,1.3s-0.1,0.9-0.3,1.3s-0.5,0.5-0.9,0.5h-4.2V32c0,0.7,0.1,1.1,0.5,1.4c0.3,0.3,0.8,0.4,1.6,0.4
		h1.4c0.6,0,1.1,0.2,1.5,0.6c0.3,0.4,0.5,0.9,0.5,1.4c0,0.6-0.2,1.1-0.5,1.5s-0.8,0.6-1.5,0.6h-1.4C120.1,37.9,117.9,36,117.9,32.2z
		"/>
</g>
  <path id="Logo" fill="#FFFFFF" d="M21,11.3c-5.9,0.1-10.7,4.9-10.6,10.9c0,0,0,0.1,0,0.1c0,4.5,3.7,8.2,8.2,8.2c0,0,0,0,0.1,0h1.4
	c3.2,0,5.7-2.6,5.7-5.7c0,0,0,0,0,0l0,0c0-1.9-1.5-3.4-3.4-3.4c0,0,0,0,0,0c-0.6,0-1.2,0.3-1.7,0.7l-0.6,0.7
	c-0.6,0.6-1.5,0.7-2.2,0.2c-0.7-0.5-0.8-1.5-0.3-2.2c0,0,0.1-0.1,0.1-0.1l0.4-0.4c1.1-1.2,2.7-1.9,4.3-1.9l0,0
	c3.5,0,6.4,2.9,6.4,6.4c0,0,0,0,0,0l0,0c0,4.9-3.9,8.8-8.8,8.9h-1.4c-6.3,0-11.4-5.1-11.4-11.4l0,0c0-7.7,6.2-13.9,13.8-13.9h19.6
	c4,0,7.3-3.3,7.3-7.3c0,0,0,0,0,0H21.2C9.5,0.9,0,10.5,0,22.2l0,0c0,10.3,8.3,18.7,18.6,18.7c0,0,0,0,0,0h1.5
	c8.7,0,15.7-7.1,15.7-15.8v-0.8c0-2.2-0.5-4.4-1.6-6.3h1.9c3.7,0,6.7-3,6.7-6.7c0,0,0,0,0,0l0,0L21,11.3z"/>
</svg>
